demo_forces.mot
version=1
nRows=54
nColumns=19
inDegrees=yes
endheader

time	ground_force_vx	ground_force_vy	ground_force_vz	ground_force_px	ground_force_py	ground_force_pz	1_ground_force_vx	1_ground_force_vy	1_ground_force_vz	1_ground_force_px	1_ground_force_py	1_ground_force_pz	ground_torque_x	ground_torque_y	ground_torque_z	1_ground_torque_x	1_ground_torque_y	1_ground_torque_z
2.183	-28.93	564.25	-27.469999999999963	0.78797020277855	9.136856419646892e-18	-0.14921618912503806	0.0	0.0	0.0	0.0	0.0	0.0	0.0	0.45134277481025564	2.7636774224481027e-17	0.0	0.0	0.0
2.1835	-29.64	564.26	-28.169999999999966	0.7880452483276094	9.137635084863809e-18	-0.14922890569307143	0.0	0.0	0.0	0.0	0.0	0.0	0.0	0.4542015823031942	2.7811825696761253e-17	0.0	0.0	0.0
2.184	-30.0	561.52	-28.169999999999966	0.7881209446636016	9.138408616821218e-18	-0.14924153842861512	0.0	0.0	0.0	0.0	0.0	0.0	0.0	0.45706422214037673	2.7987111832447064e-17	0.0	0.0	0.0
2.1845	-29.66	561.53	-27.129999999999963	0.7881972927154756	9.139176972010863e-18	-0.14925408662112538	0.0	0.0	0.0	0.0	0.0	0.0	0.0	0.45993034820224143	2.816261143782779e-17	0.0	0.0	0.0
2.185	-28.6	562.88	-27.119999999999965	0.7882742932073253	9.139940106019024e-18	-0.14926654954527108	0.0	0.0	0.0	0.0	0.0	0.0	0.0	0.46279963149201825	2.833830436766134e-17	0.0	0.0	0.0
2.1855	-28.24	564.25	-27.469999999999963	0.7883519466698199	9.140697974279916e-18	-0.14927892647323773	0.0	0.0	0.0	0.0	0.0	0.0	0.0	0.4656717603944344	2.851417154101542e-17	0.0	0.0	0.0
2.186	-28.24	562.87	-28.169999999999966	0.7884302534531284	9.141450533530387e-18	-0.14929121669848447	0.0	0.0	0.0	0.0	0.0	0.0	0.0	0.46854642172344535	2.869019378077566e-17	0.0	0.0	0.0
2.1865	-28.6	562.89	-27.819999999999965	0.7885092137360548	9.142197742666102e-18	-0.14930341954972656	0.0	0.0	0.0	0.0	0.0	0.0	0.0	0.471423286962641	2.886635097111356e-17	0.0	0.0	0.0
2.187	-28.61	561.52	-27.469999999999963	0.7885888275271188	9.142939562288982e-18	-0.14931553438354453	0.0	0.0	0.0	0.0	0.0	0.0	0.0	0.47430202170318797	2.904262263539375e-17	0.0	0.0	0.0
2.1875	-28.25	561.52	-26.429999999999964	0.7886690946608219	9.143675953419384e-18	-0.14932756056335256	0.0	0.0	0.0	0.0	0.0	0.0	0.0	0.47718230660127325	2.9218989219447316e-17	0.0	0.0	0.0
2.188	-27.55	561.51	-26.779999999999966	0.7887500147977737	9.144406876266951e-18	-0.1493394974393248	0.0	0.0	0.0	0.0	0.0	0.0	0.0	0.480063843941367	2.9395432493455724e-17	0.0	0.0	0.0
2.1885	-27.55	561.51	-26.779999999999966	0.7888315874236332	9.14513228954332e-18	-0.14935134433717107	0.0	0.0	0.0	0.0	0.0	0.0	0.0	0.4829463425174656	2.9571934626193954e-17	0.0	0.0	0.0
2.189	-27.56	561.51	-27.129999999999963	0.7889138118399174	9.145852150360172e-18	-0.14936310055647195	0.0	0.0	0.0	0.0	0.0	0.0	0.0	0.48582949902711264	2.9748477045742884e-17	0.0	0.0	0.0
2.1895	-27.92	561.52	-26.779999999999966	0.7889966871575693	9.146566414669154e-18	-0.14937476537786334	0.0	0.0	0.0	0.0	0.0	0.0	0.0	0.48871299740588536	2.9925040398738335e-17	0.0	0.0	0.0
2.19	-27.91	561.52	-26.429999999999964	0.789080212298492	9.147275037794317e-18	-0.14938633807173154	0.0	0.0	0.0	0.0	0.0	0.0	0.0	0.49159652743676496	3.0101605689866355e-17	0.0	0.0	0.0
2.1905	-27.55	561.52	-26.089999999999964	0.7891643859966058	9.147977974375751e-18	-0.149397817897293	0.0	0.0	0.0	0.0	0.0	0.0	0.0	0.4944798007335521	3.027815526056514e-17	0.0	0.0	0.0
2.191	-26.86	561.51	-26.089999999999964	0.7892492067977188	9.1486751781255e-18	-0.149409204098608	0.0	0.0	0.0	0.0	0.0	0.0	0.0	0.49736254412456565	3.045467238389345e-17	0.0	0.0	0.0
2.1915	-26.51	561.51	-26.429999999999964	0.7893346730590006	9.149366602347634e-18	-0.14942049591307416	0.0	0.0	0.0	0.0	0.0	0.0	0.0	0.5002444790211208	3.063114000121423e-17	0.0	0.0	0.0
2.192	-27.22	560.15	-26.429999999999964	0.789420782946953	9.15005220086492e-18	-0.14943169258656003	0.0	0.0	0.0	0.0	0.0	0.0	0.0	0.5031253133286159	3.080754022689153e-17	0.0	0.0	0.0
2.1925	-26.87	561.52	-26.079999999999963	0.7895075344391659	9.150731928400226e-18	-0.14944279337963393	0.0	0.0	0.0	0.0	0.0	0.0	0.0	0.5060047563480412	3.098385526074476e-17	0.0	0.0	0.0
2.193	-27.21	561.52	-25.389999999999965	0.7895949253310433	9.151405740591424e-18	-0.14945379756780733	0.0	0.0	0.0	0.0	0.0	0.0	0.0	0.5088825381521015	3.1160068574494026e-17	0.0	0.0	0.0
2.1935	-26.86	560.15	-25.389999999999965	0.7896829532411841	9.152073594055362e-18	-0.14946470444257962	0.0	0.0	0.0	0.0	0.0	0.0	0.0	0.5117584094072013	3.1336164900859833e-17	0.0	0.0	0.0
2.194	-26.17	560.15	-25.049999999999965	0.78977161561116	9.152735445790621e-18	-0.1494755133016843	0.0	0.0	0.0	0.0	0.0	0.0	0.0	0.5146321231858484	3.151212911989404e-17	0.0	0.0	0.0
2.1945	-25.48	560.15	-25.389999999999965	0.7898609097012664	9.15339125167261e-18	-0.1494862234245122	0.0	0.0	0.0	0.0	0.0	0.0	0.0	0.5175034230363652	3.168794552846035e-17	0.0	0.0	0.0
2.195	-25.83	560.15	-25.389999999999965	0.7899508325873771	9.154040965596917e-18	-0.14949683405812103	0.0	0.0	0.0	0.0	0.0	0.0	0.0	0.5203720517149317	3.1863598374917724e-17	0.0	0.0	0.0
2.1955	-26.17	561.53	-25.039999999999964	0.7900413811675834	9.154684540502999e-18	-0.1495073444339539	0.0	0.0	0.0	0.0	0.0	0.0	0.0	0.523237768273867	3.203907290547585e-17	0.0	0.0	0.0
2.196	-27.2	561.53	-24.689999999999966	0.7901325521839043	9.155321930200762e-18	-0.14951775379766924	0.0	0.0	0.0	0.0	0.0	0.0	0.0	0.5261003511151888	3.221435555117173e-17	0.0	0.0	0.0
2.1965	-27.21	560.16	-24.699999999999964	0.7902243422456543	9.15595309030883e-18	-0.1495280614244642	0.0	0.0	0.0	0.0	0.0	0.0	0.0	0.528959581882652	3.2389432941541526e-17	0.0	0.0	0.0
2.197	-25.82	561.53	-25.039999999999964	0.7903167478394749	9.156577978227224e-18	-0.14953826661862832	0.0	0.0	0.0	0.0	0.0	0.0	0.0	0.5318152293766714	3.2564290919693644e-17	0.0	0.0	0.0
2.1975	-24.44	561.52	-25.039999999999964	0.7904097653318707	9.157196552743602e-18	-0.14954836870711302	0.0	0.0	0.0	0.0	0.0	0.0	0.0	0.5346670540463471	3.273891481736597e-17	0.0	0.0	0.0
2.198	-24.44	560.15	-24.349999999999966	0.7905033909659073	9.157808773577485e-18	-0.1495583670320881	0.0	0.0	0.0	0.0	0.0	0.0	0.0	0.5375148287495429	3.2913290726113985e-17	0.0	0.0	0.0
2.1985	-25.11	561.52	-24.349999999999966	0.7905976208485996	9.158414601142697e-18	-0.14956826094706233	0.0	0.0	0.0	0.0	0.0	0.0	0.0	0.5403583503997329	3.30874062104745e-17	0.0	0.0	0.0
2.199	-26.17	560.16	-23.649999999999963	0.7906924509467455	9.159013996436257e-18	-0.1495780498150686	0.0	0.0	0.0	0.0	0.0	0.0	0.0	0.5431974277685933	3.326124956108976e-17	0.0	0.0	0.0
2.1995	-26.18	560.17	-23.999999999999964	0.7907878770949929	9.15960692076861e-18	-0.14958773300425854	0.0	0.0	0.0	0.0	0.0	0.0	0.0	0.5460318615846838	3.343480857610321e-17	0.0	0.0	0.0
2.2	-25.14	560.17	-23.999999999999964	0.7908838949934157	9.160193335373882e-18	-0.14959730988153735	0.0	0.0	0.0	0.0	0.0	0.0	0.0	0.5488614438251166	3.3608070517786655e-17	0.0	0.0	0.0
2.2005	-23.74	561.53	-23.999999999999964	0.7909805001965705	9.160773201190063e-18	-0.149606779808974	0.0	0.0	0.0	0.0	0.0	0.0	0.0	0.5516859780957515	3.378102336046735e-17	0.0	0.0	0.0
2.201	-23.37	561.52	-23.649999999999963	0.7910776881160511	9.161346479099044e-18	-0.14961614214772123	0.0	0.0	0.0	0.0	0.0	0.0	0.0	0.5545052936651363	3.3953656649858965e-17	0.0	0.0	0.0
2.2015	-24.42	560.15	-23.649999999999963	0.7911754540356738	9.161913130476719e-18	-0.1496253962669996	0.0	0.0	0.0	0.0	0.0	0.0	0.0	0.5573192326056818	3.4125960715685674e-17	0.0	0.0	0.0
2.202	-25.48	561.54	-23.299999999999965	0.7912737931208285	9.162473117454005e-18	-0.14963454154836012	0.0	0.0	0.0	0.0	0.0	0.0	0.0	0.560127626519518	3.429792524655186e-17	0.0	0.0	0.0
2.2025	-25.49	561.55	-23.649999999999963	0.7913727004201818	9.163026403057911e-18	-0.14964357738798795	0.0	0.0	0.0	0.0	0.0	0.0	0.0	0.5629302945231017	3.446953916653491e-17	0.0	0.0	0.0
2.203	-23.74	561.53	-23.649999999999963	0.7914721708705424	9.16357295195259e-18	-0.149652503208805	0.0	0.0	0.0	0.0	0.0	0.0	0.0	0.5657270657543428	3.4640792013349224e-17	0.0	0.0	0.0
2.2035	-23.03	561.52	-23.299999999999965	0.7915721993017341	9.164112731176415e-18	-0.149661318472507	0.0	0.0	0.0	0.0	0.0	0.0	0.0	0.568517797393669	3.481167504181821e-17	0.0	0.0	0.0
2.204	-23.02	561.52	-22.959999999999965	0.7916727804373732	9.164645709985994e-18	-0.14967002267701626	0.0	0.0	0.0	0.0	0.0	0.0	0.0	0.5713023642331572	3.498218058516776e-17	0.0	0.0	0.0
2.2045	-23.73	561.54	-22.959999999999965	0.7917739089003103	9.16517185917921e-18	-0.149678615345426	0.0	0.0	0.0	0.0	0.0	0.0	0.0	0.5740806312149699	3.5152300373490455e-17	0.0	0.0	0.0
2.205	-24.09	561.55	-22.949999999999964	0.7918755792258138	9.165691150298311e-18	-0.14968709601298585	0.0	0.0	0.0	0.0	0.0	0.0	0.0	0.5768524427473034	3.532202487953607e-17	0.0	0.0	0.0
2.2055	-23.75	561.55	-22.609999999999964	0.7919777858713709	9.166203554901515e-18	-0.14969546421520624	0.0	0.0	0.0	0.0	0.0	0.0	0.0	0.5796176426066856	3.549134453737586e-17	0.0	0.0	0.0
2.206	-23.04	560.16	-22.609999999999964	0.7920805232126895	9.16670904438631e-18	-0.14970371948497282	0.0	0.0	0.0	0.0	0.0	0.0	0.0	0.5823760999545395	3.5660251335457586e-17	0.0	0.0	0.0
2.2065	-23.02	561.53	-22.259999999999966	0.7921837855336343	9.167207590258171e-18	-0.1497118613569346	0.0	0.0	0.0	0.0	0.0	0.0	0.0	0.5851277096348962	3.58287388348352e-17	0.0	0.0	0.0
2.207	-23.04	560.17	-21.919999999999966	0.7922875670276183	9.167699164250342e-18	-0.14971988936946043	0.0	0.0	0.0	0.0	0.0	0.0	0.0	0.5878723667121617	3.599680061005674e-17	0.0	0.0	0.0
2.2075	-23.05	561.55	-21.909999999999965	0.7923918618068966	9.168183738304387e-18	-0.14972780306432126	0.0	0.0	0.0	0.0	0.0	0.0	0.0	0.5906099469978097	3.616442905676815e-17	0.0	0.0	0.0
2.208	-23.05	560.18	-21.909999999999965	0.7924966639047732	9.168661284754548e-18	-0.14973560198970098	0.0	0.0	0.0	0.0	0.0	0.0	0.0	0.593340317594166	3.6331616037333856e-17	0.0	0.0	0.0
2.2085	-22.69	561.54	-22.259999999999966	0.7926019672749798	9.169131776464677e-18	-0.14974328570243264	0.0	0.0	0.0	0.0	0.0	0.0	0.0	0.5960633622924494	3.6498354436018264e-17	0.0	0.0	0.0
2.209	-22.32	562.91	-21.909999999999965	0.7927077658010123	9.169595186661639e-18	-0.14975085376527775	0.0	0.0	0.0	0.0	0.0	0.0	0.0	0.5987789881914466	3.666463856426271e-17	0.0	0.0	0.0
2.2095	-22.68	561.54	-21.909999999999965	0.7928140533145585	9.170051488759946e-18	-0.14975830574406238	0.0	0.0	0.0	0.0	0.0	0.0	0.0	0.6014871052532633	3.6830462908836256e-17	0.0	0.0	0.0
